<svg xmlns="http://www.w3.org/2000/svg" class="css-r5ic95" viewBox="0 0 13 13" fill="currentColor"><polygon points="0,-93.6 0,-86.9 6.6,-93.6"/><polygon points="0.9,-86 7.5,-86 7.5,-92.6"/><polygon points="0,-98 0,-94.8 8.8,-94.8 8.8,-86 12,-86 12,-98"/><path d="M11.9-40c-0.4,1.1-1.2,1.9-2.3,2.4V-40l1.3-1.2l-1.3-1.2V-44c1.2-0.1,2-1,2-2c0-1.4-1.3-1.9-2.1-1.9c-0.2,0-0.3,0-0.6,0.1v0.1c0.1,0,0.2,0,0.3,0c0.5,0,0.9,0.2,0.9,0.7c0,0.4-0.3,0.7-0.8,0.7c-1.3,0-2.8-1.1-4.5-1.1c-1.5,0-2.5,1.1-2.5,2.2c0,1.1,0.6,1.5,1.3,1.7l0-0.1c-0.2-0.1-0.4-0.4-0.4-0.7c0-0.5,0.5-0.9,1-0.9C5.7-45.1,8-44,9.4-44h0.1v1.7l-1.3,1.1L9.5-40v2.4c-0.5,0.2-1.1,0.3-1.7,0.3c-2.2,0-3.6-1.3-3.6-3.5c0-0.5,0.1-1,0.2-1.5l1.1-0.5v4.9l2.2-1v-5l-3.3,1.5c0.3-1,1-1.7,1.8-2l0,0c-2.2,0.5-4.3,2.1-4.3,4.6c0,2.9,2.4,4.8,5.2,4.8C10.2-35.1,11.9-37.1,11.9-40L11.9-40z"/><path d="M12.2-23.7c-0.2,0-0.4,0.2-0.4,0.4v0.4L0.4-19.1v2.3l3,1l-0.2,0.6c-0.3,0.8,0.1,1.8,0.9,2.1l1.7,0.7c0.2,0.1,0.4,0.1,0.6,0.1c0.6,0,1.3-0.4,1.5-1l0.4-0.9l3.5,1.2v0.4c0,0.2,0.2,0.4,0.4,0.4c0.2,0,0.4-0.2,0.4-0.4v-10.7C12.6-23.5,12.4-23.7,12.2-23.7M7.1-13.6c-0.2,0.4-0.6,0.6-1,0.4l-1.7-0.7c-0.4-0.2-0.6-0.6-0.4-1l0.3-0.7l3.3,1.1L7.1-13.6z"/><path d="M13.1-60.3H3.5v-10.5h9.6V-60.3zM13.1-71.6H3.5c-0.5,0-0.9,0.4-0.9,0.9v2.2H0.9c-0.5,0-0.9,0.4-0.9,0.9v5.2v1.5c0,0.8,0.8,1.5,1.8,1.5h1.7h0h7.4h2.2c0.5,0,0.9-0.4,0.9-0.9v-10.5C14-71.2,13.6-71.6,13.1-71.6"/><polygon points="10.9,-69 5.2,-69 5.2,-68.1 11.4,-68.1 11.4,-69"/><rect x="5.2" y="-67.3" width="6.1" height="0.9"/><rect x="5.2" y="-65.5" width="6.1" height="0.9"/><path d="M12,6.5H6.5V12H1V6.5h5.5V1H12V6.5zM12,0H1C0.4,0,0,0.5,0,1v11c0,0.6,0.4,1,1,1h11c0.5,0,1-0.4,1-1V1C13,0.5,12.5,0,12,0"/></svg>