<svg xmlns="http://www.w3.org/2000/svg" class="css-1tel06d" viewBox="0 0 16 22"><path d="M15.863 13.08c-.687 1.818-1.923 3.147-3.64 3.916v-3.917l2.129-1.958-2.129-1.889V6.505c1.923-.14 3.228-1.609 3.228-3.358C15.45.84 13.32 0 12.086 0c-.275 0-.55 0-.962.14v.14h.481c.824 0 1.51.42 1.51 1.189 0 .63-.48 1.189-1.304 1.189-2.129 0-4.6-1.749-7.279-1.749C2.13.91.481 2.728.481 4.546c0 1.819 1.03 2.448 2.128 2.798v-.14c-.343-.21-.618-.63-.618-1.189 0-.84.756-1.469 1.648-1.469 2.267 0 5.906 1.959 8.172 1.959h.206v2.727l-2.129 1.889 2.13 1.958v3.987c-.894.35-1.786.49-2.748.49-3.502 0-5.768-2.169-5.768-5.806 0-.839.137-1.678.344-2.518l1.785-.769v7.973l3.57-1.608V6.575L3.984 8.953c.55-1.61 1.648-2.728 2.953-3.358v-.07C3.433 6.295 0 9.023 0 13.08c0 4.686 3.914 7.974 8.446 7.974 4.807 0 7.485-3.288 7.554-7.974h-.137z" fill="currentColor"/></svg>